<svg width="20" height="20" viewBox="0 0 20 20" fill="none" xmlns="http://www.w3.org/2000/svg">
<path d="M5.55469 19.2725C6.05566 19.2725 6.4248 19.0264 7.03125 18.4902L10.0459 15.8359H15.3369C17.9824 15.8359 19.4678 14.3066 19.4678 11.6963V4.86719C19.4678 2.25684 17.9824 0.727539 15.3369 0.727539H4.13086C1.49414 0.727539 0 2.25684 0 4.86719V11.6963C0 14.3154 1.53809 15.8359 4.06934 15.8359H4.42969V17.9893C4.42969 18.7715 4.84277 19.2725 5.55469 19.2725ZM5.99414 17.3037V14.7988C5.99414 14.2803 5.76562 14.0781 5.27344 14.0781H4.19238C2.54004 14.0781 1.74902 13.2432 1.74902 11.6436V4.91992C1.74902 3.32031 2.54004 2.48535 4.19238 2.48535H15.2842C16.9277 2.48535 17.7188 3.32031 17.7188 4.91992V11.6436C17.7188 13.2432 16.9277 14.0781 15.2842 14.0781H9.94922C9.41309 14.0781 9.14941 14.166 8.78027 14.5527L5.99414 17.3037ZM5.58105 7.39844C5.58105 8.38281 6.20508 9.14746 7.17188 9.14746C7.5498 9.14746 7.91016 9.05957 8.13867 8.78711H8.24414C7.96289 9.45508 7.33008 9.9209 6.68848 10.0791C6.38965 10.1582 6.28418 10.2988 6.28418 10.5098C6.28418 10.7383 6.47754 10.9053 6.73242 10.9053C7.64648 10.9053 9.33398 9.81543 9.33398 7.75C9.33398 6.5459 8.56934 5.61426 7.40918 5.61426C6.36328 5.61426 5.58105 6.35254 5.58105 7.39844ZM10.2041 7.39844C10.2041 8.38281 10.8281 9.14746 11.7949 9.14746C12.1816 9.14746 12.542 9.05957 12.7705 8.78711H12.8672C12.5859 9.45508 11.9531 9.9209 11.3115 10.0791C11.0215 10.1582 10.916 10.2988 10.916 10.5098C10.916 10.7383 11.1006 10.9053 11.3555 10.9053C12.2695 10.9053 13.957 9.81543 13.957 7.75C13.957 6.5459 13.1924 5.61426 12.0322 5.61426C10.9863 5.61426 10.2041 6.35254 10.2041 7.39844Z" fill="#C4C3BE"/>
</svg>
